<mxfile host="app.diagrams.net" modified="2024-04-22T00:05:01.575Z" agent="Mozilla/5.0 (Windows NT 10.0; Win64; x64) AppleWebKit/537.36 (KHTML, like Gecko) Chrome/123.0.0.0 Safari/537.36" etag="MYp4zAit44DBZ8ProXs9" version="23.1.8" type="github">
  <diagram id="C5RBs43oDa-KdzZeNtuy" name="Page-1">
    <mxGraphModel dx="880" dy="434" grid="1" gridSize="10" guides="1" tooltips="1" connect="1" arrows="1" fold="1" page="1" pageScale="1" pageWidth="827" pageHeight="1169" math="0" shadow="0">
      <root>
        <mxCell id="WIyWlLk6GJQsqaUBKTNV-0" />
        <mxCell id="WIyWlLk6GJQsqaUBKTNV-1" parent="WIyWlLk6GJQsqaUBKTNV-0" />
        <mxCell id="dfuF37jm12MKvaZRMaLI-11" style="edgeStyle=orthogonalEdgeStyle;rounded=0;orthogonalLoop=1;jettySize=auto;html=1;entryX=0.5;entryY=0;entryDx=0;entryDy=0;" edge="1" parent="WIyWlLk6GJQsqaUBKTNV-1" source="dfuF37jm12MKvaZRMaLI-0" target="dfuF37jm12MKvaZRMaLI-2">
          <mxGeometry relative="1" as="geometry" />
        </mxCell>
        <mxCell id="dfuF37jm12MKvaZRMaLI-0" value="Inicio" style="strokeWidth=2;html=1;shape=mxgraph.flowchart.start_2;whiteSpace=wrap;" vertex="1" parent="WIyWlLk6GJQsqaUBKTNV-1">
          <mxGeometry x="390" y="70" width="40" height="40" as="geometry" />
        </mxCell>
        <mxCell id="dfuF37jm12MKvaZRMaLI-1" value="Finalizar" style="strokeWidth=2;html=1;shape=mxgraph.flowchart.start_2;whiteSpace=wrap;" vertex="1" parent="WIyWlLk6GJQsqaUBKTNV-1">
          <mxGeometry x="383" y="460" width="54" height="50" as="geometry" />
        </mxCell>
        <mxCell id="dfuF37jm12MKvaZRMaLI-12" style="edgeStyle=orthogonalEdgeStyle;rounded=0;orthogonalLoop=1;jettySize=auto;html=1;exitX=0.5;exitY=1;exitDx=0;exitDy=0;entryX=0.5;entryY=0;entryDx=0;entryDy=0;" edge="1" parent="WIyWlLk6GJQsqaUBKTNV-1" source="dfuF37jm12MKvaZRMaLI-2" target="dfuF37jm12MKvaZRMaLI-3">
          <mxGeometry relative="1" as="geometry" />
        </mxCell>
        <mxCell id="dfuF37jm12MKvaZRMaLI-2" value="Registro de gastos" style="rounded=1;whiteSpace=wrap;html=1;absoluteArcSize=1;arcSize=14;strokeWidth=2;" vertex="1" parent="WIyWlLk6GJQsqaUBKTNV-1">
          <mxGeometry x="340" y="140" width="140" height="50" as="geometry" />
        </mxCell>
        <mxCell id="dfuF37jm12MKvaZRMaLI-8" style="edgeStyle=orthogonalEdgeStyle;rounded=0;orthogonalLoop=1;jettySize=auto;html=1;exitX=0.5;exitY=1;exitDx=0;exitDy=0;entryX=0.5;entryY=0;entryDx=0;entryDy=0;" edge="1" parent="WIyWlLk6GJQsqaUBKTNV-1" source="dfuF37jm12MKvaZRMaLI-3" target="dfuF37jm12MKvaZRMaLI-4">
          <mxGeometry relative="1" as="geometry" />
        </mxCell>
        <mxCell id="dfuF37jm12MKvaZRMaLI-3" value="Procesos de facturación" style="rounded=1;whiteSpace=wrap;html=1;absoluteArcSize=1;arcSize=14;strokeWidth=2;" vertex="1" parent="WIyWlLk6GJQsqaUBKTNV-1">
          <mxGeometry x="340" y="210" width="140" height="50" as="geometry" />
        </mxCell>
        <mxCell id="dfuF37jm12MKvaZRMaLI-9" style="edgeStyle=orthogonalEdgeStyle;rounded=0;orthogonalLoop=1;jettySize=auto;html=1;exitX=0.5;exitY=1;exitDx=0;exitDy=0;entryX=0.5;entryY=0;entryDx=0;entryDy=0;" edge="1" parent="WIyWlLk6GJQsqaUBKTNV-1" source="dfuF37jm12MKvaZRMaLI-4" target="dfuF37jm12MKvaZRMaLI-5">
          <mxGeometry relative="1" as="geometry" />
        </mxCell>
        <mxCell id="dfuF37jm12MKvaZRMaLI-4" value="Registros de nominas y contratos" style="rounded=1;whiteSpace=wrap;html=1;absoluteArcSize=1;arcSize=14;strokeWidth=2;" vertex="1" parent="WIyWlLk6GJQsqaUBKTNV-1">
          <mxGeometry x="340" y="280" width="140" height="60" as="geometry" />
        </mxCell>
        <mxCell id="dfuF37jm12MKvaZRMaLI-5" value="Generación de pagos de cuotas" style="rounded=1;whiteSpace=wrap;html=1;absoluteArcSize=1;arcSize=14;strokeWidth=2;" vertex="1" parent="WIyWlLk6GJQsqaUBKTNV-1">
          <mxGeometry x="340" y="360" width="140" height="50" as="geometry" />
        </mxCell>
        <mxCell id="dfuF37jm12MKvaZRMaLI-6" value="Facturas" style="strokeWidth=2;html=1;shape=mxgraph.flowchart.document2;whiteSpace=wrap;size=0.25;" vertex="1" parent="WIyWlLk6GJQsqaUBKTNV-1">
          <mxGeometry x="560" y="205" width="100" height="60" as="geometry" />
        </mxCell>
        <mxCell id="dfuF37jm12MKvaZRMaLI-7" style="edgeStyle=orthogonalEdgeStyle;rounded=0;orthogonalLoop=1;jettySize=auto;html=1;entryX=0;entryY=0.5;entryDx=0;entryDy=0;entryPerimeter=0;" edge="1" parent="WIyWlLk6GJQsqaUBKTNV-1" source="dfuF37jm12MKvaZRMaLI-3" target="dfuF37jm12MKvaZRMaLI-6">
          <mxGeometry relative="1" as="geometry" />
        </mxCell>
        <mxCell id="dfuF37jm12MKvaZRMaLI-10" style="edgeStyle=orthogonalEdgeStyle;rounded=0;orthogonalLoop=1;jettySize=auto;html=1;exitX=0.5;exitY=1;exitDx=0;exitDy=0;entryX=0.5;entryY=0;entryDx=0;entryDy=0;entryPerimeter=0;" edge="1" parent="WIyWlLk6GJQsqaUBKTNV-1" source="dfuF37jm12MKvaZRMaLI-5" target="dfuF37jm12MKvaZRMaLI-1">
          <mxGeometry relative="1" as="geometry" />
        </mxCell>
      </root>
    </mxGraphModel>
  </diagram>
</mxfile>
